<svg xmlns="http://www.w3.org/2000/svg" xmlns:xlink="http://www.w3.org/1999/xlink" viewBox="0 0 30.64 43.25"><defs><style>.cls-1{fill:#ececec;}.cls-2{fill:url(#Dégradé_sans_nom);}.cls-3{fill:#fff;}</style><linearGradient id="Dégradé_sans_nom" x1="-775.81" y1="169.78" x2="-775.01" y2="169.78" gradientTransform="matrix(43.58, -8.81, -8.81, -43.58, 35303.47, 571.17)" gradientUnits="userSpaceOnUse"><stop offset="0" stop-color="#95bcd7"/><stop offset="0.15" stop-color="#95bcd7"/><stop offset="0.36" stop-color="#78c1dc"/><stop offset="0.46" stop-color="#68c4de"/><stop offset="0.75" stop-color="#74c8ee"/><stop offset="1" stop-color="#74c8ee"/></linearGradient></defs><title>LogoLinkValue</title><g id="Calque_2" data-name="Calque 2"><g id="Layer_1" data-name="Layer 1"><path class="cls-1" d="M24,35.33l-7.35-6a.45.45,0,0,1-.07-.61L30.64,10.18c0-.35,0-.78-.33-.78h-.08a.41.41,0,0,0-.21.1L7.57,29.61a.62.62,0,0,0,.13.75l15.86,5.73a.44.44,0,0,0,.59-.2A.43.43,0,0,0,24,35.33Z"/><path class="cls-2" d="M29.68.78,30,.48l.46-.41Z"/><path class="cls-3" d="M30,.48.11,26.9a.34.34,0,0,0,0,.47.42.42,0,0,0,.14.09L7.29,29.9a.33.33,0,0,0,.33-.06l23-19.67V0C30.41.15,30.2.31,30,.48Z"/><path class="cls-3" d="M24.16,35.57h0a.31.31,0,0,0-.18-.22L7.66,29.93H7.49a.31.31,0,0,0-.15.08L1.73,35.19a.3.3,0,0,0,0,.42.42.42,0,0,0,.12.08l22.32,7.56Z"/></g></g></svg>